<?xml version="1.0" encoding="utf-8"?>
<!-- Generator: Adobe Illustrator 21.0.1, SVG Export Plug-In . SVG Version: 6.00 Build 0)  -->
<svg version="1.1" xmlns="http://www.w3.org/2000/svg" xmlns:xlink="http://www.w3.org/1999/xlink" x="0px" y="0px"
	 viewBox="0 0 450 450" style="enable-background:new 0 0 450 450;" xml:space="preserve">
<style type="text/css">
	.st0{fill:#0CB1F2;}
	.st1{fill:#C9EBF2;}
	.st2{fill:#F2C84B;}
	.st3{fill:#8CEB4F;}
	.st4{fill:#0C9AF2;}
	.st5{fill:#6CE15F;}
	.st6{fill:#F24484;}
	.st7{fill:#ACF53F;}
	.st8{clip-path:url(#SVGID_2_);}
	.st9{fill:#FFFFFF;}
</style>
<g id="Palette">
	<rect x="-230" y="26" class="st0" width="72" height="72"/>
	<rect x="-230" y="117" class="st1" width="72" height="72"/>
	<rect x="-230" y="208" class="st2" width="72" height="72"/>
	<rect x="-230" y="299" class="st3" width="72" height="72"/>
	<rect x="-230" y="-65" class="st4" width="72" height="72"/>
	<rect x="-230" y="390" class="st5" width="72" height="72"/>
	<rect x="-230" y="-156" class="st6" width="72" height="72"/>
	<rect x="-230" y="481" class="st7" width="72" height="72"/>
</g>
<g id="Layer_1">
	<g>
		<defs>
			<rect id="SVGID_1_" width="450" height="450"/>
		</defs>
		<clipPath id="SVGID_2_">
			<use xlink:href="#SVGID_1_"  style="overflow:visible;"/>
		</clipPath>
		<g class="st8">
			<g id="Group">
				<path class="st6" d="M300.6,315.2c-12.1,0-6.1-28.2-6.1-32.2c1-2-9.1-121.9-9.1-121.9c1-4.1,3-9.1,10.1-9.1h2
					c16.1,0,30.2-13.1,30.2-29.2c0-16.1-13.1-29.3-30.2-29.3c-16.1,0-30.2,13.1-30.2,29.3c0,3,0,6,1,9.1c0,0,6,15.1-7.1,13.1
					c0,0-113.9,39.3-118.9,40.3c-14.1,25.2-50.4,12.1-61.5,4c-3-4-9.1-7-16.1-7c-12.2,0.1-22.1,10-22.2,22.2
					c1,11.1,11.1,21.2,23.2,21.2c4.1,0,9.1-1,12.1-3c18.1-9.1,51.4-3,55.4,13.1v1c1,3,24.2,49.4,27.2,53.4
					c15.1,28.2-22.2,39.3-22.2,39.3c-10.1,0-19.1,9.1-19.1,20.2c0,12.1,10.1,22.2,22.2,22.2c12.1,0,22.2-10.1,22.2-22.2
					c3-23.2,15.1-38.3,37.3-39.3c3,1,57.4-3,61.4-4c16.1,3,7.1,16.1,7.1,38.3c0,16.1,13.1,29.2,30.2,29.2
					c16.1,0,30.2-13.1,30.2-29.2C330.8,328.3,317.7,315.2,300.6,315.2L300.6,315.2z"/>
				<path class="st2" d="M367.1,167.1c-9.1,0-16.1,4.1-19.2,12.1c-9,13.1-28.2,16.1-40.3,10.1c-2-5-129-39.3-129-38.3
					c-16.1,9.1-31.2-19.2-30.2-32.3v-1c1-3,1-6.1,1-9.1c0-16.1-13.1-29.2-30.2-29.2c-16.1,0-30.2,13.1-30.2,29.2
					c0,13.1,9.1,23.2,19.1,28.2c17.2,7.1,40.3,27.2,38.3,41.3c7.1,12.1-9.1,74.6-8.1,79.6c-9.1,9.1-27.2,7.1-34.3,4.1
					c-3-4.1-9-6.1-15.1-6.1c-16.1,0-30.2,13.1-30.2,29.2c0,16.1,13.1,29.3,30.2,29.3c10.1,0,18.1-4.1,24.2-12.1
					c9.1-13.1,24.2-25.2,37.3-25.2c2,3,164.2-60.5,164.2-61.5c1-6.1,25.2-12.1,46.4-7.1h6.1c12.1,0,22.2-10.1,22.2-22.2
					C389.3,174.1,379.2,167.1,367.1,167.1L367.1,167.1z"/>
				<path class="st4" d="M315.7,225.5c0,50.1-40.6,90.7-90.7,90.7s-90.7-40.6-90.7-90.7s40.6-90.7,90.7-90.7
					S315.7,175.4,315.7,225.5z"/>
				<path class="st5" d="M248.2,311.2c3-6.1-8.1-8.1-17.1-8.1c-9.1,0-18.2,5-16.1,11.1c24.2,36.3,6.1,41.3-5,48.4
					c-9.1,4-15.1,15.1-15.1,25.2c0,16.1,13.1,29.2,30.2,29.2s30.2-13.1,30.2-29.2C256.3,359.6,238.1,320.2,248.2,311.2z
					 M375.1,254.7c-6,0-12.1,1-16.1,4.1c-18.2,7-34.3-6.1-46.4-14.1c-6-4-13.1,6.1-15.1,9.1c-2,3-5,17.1,7.1,17.1
					c20.2-7.1,45.4,28.2,45.4,28.2c4.1,10.1,15.1,16.1,27.2,16.1c16.1,0,30.2-13.1,30.2-29.2C404.4,267.8,391.3,254.7,375.1,254.7z
					 M198.8,79.4c19.2,39.3,18.2,54.4,7.1,58.5c-9.1,7.1,6,16.1,17.1,14.1c11.1-2,21.1-7.1,14.1-17.1c-17.1-30.2,5-50.4,5-50.4
					c7.1-4,12.1-13.1,12.1-22.2c0-16.1-13.1-29.2-30.2-29.2c-17.1,0-30.2,13.1-30.2,29.3c0,4,1,9,3,13.1
					C196.8,78.4,196.8,78.4,198.8,79.4L198.8,79.4z"/>
			</g>
		</g>
	</g>
</g>
<g id="Face">
	<path class="st9" d="M181.4,193.6c11-1.1,20.9,6.5,23.5,17.5c0-1,0-2.1-0.1-3.2c-1.3-12.6-12.1-21.9-24.1-20.6
		c-12,1.2-20.7,12.5-19.4,25.1c0.1,1.1,0.3,2.1,0.5,3.1C162.3,204.3,170.5,194.7,181.4,193.6z"/>
	<path class="st9" d="M261.8,189.4c11,1.1,19.2,10.6,19.5,21.9c0.2-1,0.4-2.1,0.5-3.1c1.3-12.6-7.4-23.9-19.4-25.1
		s-22.8,8.1-24,20.7c-0.1,1.1-0.1,2.1-0.1,3.2C240.9,196,250.8,188.3,261.8,189.4z"/>
	<path class="st9" d="M228.4,265c-24.6,1.3-47.3-3.2-64.4-11.7c11.8,19.4,35.7,32,62.6,30.6c25.1-1.3,46.3-14.5,56.9-32.9
		C268.4,258.7,249.3,263.9,228.4,265z"/>
</g>
</svg>
